<svg xmlns="http://www.w3.org/2000/svg" id="Grupo_1_xA0_Imagen" viewBox="0 0 603.7 185.6"><defs><style>      .st0 {        fill: #fff;      }      .st1 {        isolation: isolate;      }      .st2 {        fill: #a00010;      }    </style></defs><path class="st2" d="M68.2,70.7c2.5.4,5,.9,7.4,1.3.5,0,.9.2,1.4.2,3.8,0,6.4,2.6,9.4,4.4,1.6,1,1.8,1.1,2.3-.7,1.1-3.8,3.4-6.4,6.5-8.8,2.4-1.8,4.9-2.9,7.9-3.2.6,0,1.3,0,1.9-.3,3-1.1,5,0,7.1,2.2,5,4.9,10.2,9.7,15.4,14.4.6.6.6,1,.3,1.7-9,17.4-18,34.9-27,52.4-.4.9-.7.9-1.5.4-16.2-11.3-32.5-22.6-48.7-33.9-.7-.5-.9-.9-.6-1.7,2.5-7.3,4.9-14.7,7.3-22,.2-.6.4-1,1-1.3,3.1-1.6,6.2-3.2,9.3-4.9.2,0,.5-.2.6-.2h0Z"></path><path class="st0" d="M144.9,78.7c-1.6-5.3-3.9-10.4-7-15-3.8-5.8-8.6-10.7-14.2-14.7-.7-.5-1.3-1.1-1.8-1.9-7.7-12.7-15.5-25.4-23.3-38.1-.2-.4-.5-.8-.8-1.3,6.4.5,12.5,1.6,18.5,3.4,19.2,5.9,34.5,17.1,46.1,33.5.5.7.5,1.2.1,1.9-5.7,10.4-11.3,20.8-17,31.2,0,.3-.1.7-.6,1h0Z"></path><path class="st0" d="M20.1,45.2c2.9-4.3,6.1-8.2,9.6-11.8,12.7-12.9,28-21.1,45.7-24.6,3-.6,6.1-.9,9.1-1.2.6,0,.9,0,1.3.6,6.4,10.6,12.9,21.1,19.3,31.6,0,0,0,.1,0,.2-.3.3-.7,0-1,0-12.6-2.9-24.8-1.7-36.6,3.6-.4.2-.9.4-1.4.4-15.2.4-30.5.8-45.7,1.2,0,0-.1,0-.4,0Z"></path><path class="st0" d="M169.3,56.4c1.9,3.9,3.5,7.8,4.7,11.8,3.3,10.8,4.5,21.8,3.6,33-.9,10.4-3.5,20.3-8,29.7-.2.5-.4.9-1.2.9-11.7.3-23.4.6-35.1.9h-1c1-1.2,2-2.3,2.8-3.4,6.9-8.9,11-19,11.8-30.3.2-2.2,1.3-3.8,2.2-5.6,6.6-12.2,13.2-24.4,19.9-36.7l.3-.3h0Z"></path><path class="st0" d="M51.3,55.1c-2.2,2.4-4.2,4.6-6,7.1-5.9,8.4-9.4,17.8-10.1,28,0,1.6-.7,2.9-1.4,4.2-6.6,12.2-13.2,24.3-19.8,36.5-.1.1-.2.3-.3.5-1.2-2.1-2-4.2-2.8-6.4-4.8-12.4-6.6-25.3-5.5-38.5.9-10.3,3.5-20.2,8-29.6.3-.6.5-.9,1.3-1,11.9-.3,23.9-.6,35.8-.9.2,0,.4,0,.8,0h0Z"></path><path class="st0" d="M78.8,149.4c2.7.5,5.4,1,8,1.2,10.1.8,19.8-1,28.9-5.6,1.9-.9,3.7-1.3,5.7-1.4,10.5-.3,20.9-.5,31.4-.8,3.3-.1,6.6,0,9.9,0-1.1,1.8-2.4,3.5-3.8,5.2-13.4,16.4-30.5,26.8-51.4,30.9-3,.6-6,.9-9,1.2-.6.1-1-.1-1.4-.6-6-9.8-12-19.7-18-29.5,0-.2-.2-.3-.3-.6h0Z"></path><path class="st0" d="M37.3,110.4c4.3,13.7,12.3,24.3,24.2,31.8.8.5,1.2,1.3,1.6,2,7.2,11.8,14.4,23.6,21.7,35.4,0,.1,0,.3.2.5-3.7-.2-7.2-.7-10.7-1.5-22.5-4.8-40.4-16.7-53.8-35.4-.5-.7-.6-1.2-.1-2,5.4-9.9,10.8-19.8,16.1-29.7.3-.3.5-.6.8-1.1h0Z"></path><g class="st1"><path class="st0" d="M280.7,40.8h16.5l-18.7,69.1h-23.5l-11.7-48.8-11.7,48.8h-23.6l-18.8-69.1h16.6l14.6,55.7,14-55.7h18l13.7,55.7,14.6-55.7h0Z"></path><path class="st0" d="M324.6,109.8h-16.3V40.8h16.3v69.1Z"></path><path class="st0" d="M340.2,109.8V40.8h16.3v55.1h28.9v14h-45.2Z"></path><path class="st0" d="M413.1,40.8v28.1l23-28.1h19.7l-28.2,33.2,28.8,35.9h-19.8l-23.5-30.5v30.5h-16.3V40.8h16.3Z"></path><path class="st0" d="M481.6,109.8h-16.3V40.8h16.3v69.1Z"></path><path class="st0" d="M546.7,96.8v13.1h-49.5V40.8h48.5v13.1h-32.8v14.8h28.9v11.4h-28.9v16.6h33.8,0Z"></path><path class="st0" d="M599.8,109.8v10.4h-48.5v-10.4h48.5Z"></path></g><g class="st1"><g class="st1"><path class="st0" d="M200.9,122.2h8.6c7.9,0,13.3,4.6,13.3,11.5s-5.3,11.5-13.3,11.5h-8.6s0-23,0-23ZM209.6,126.4h-3.4v14.6h3.4c4.7,0,7.9-2.8,7.9-7.3s-3.2-7.3-7.9-7.3h0Z"></path><path class="st0" d="M243.5,140.8v4.4h-16.5v-23h16.2v4.4h-10.9v5h9.6v3.8h-9.6v5.5h11.3Z"></path><path class="st0" d="M257.1,141.2l5.9-19h5.7l-7.4,23h-8.3l-7.4-23h5.7l5.9,19h0Z"></path><path class="st0" d="M270.3,137.6h4.9c0,2.5,2.2,4.3,5.3,4.3s4.3-1.3,4.3-3c0-4.9-14.3-.8-14.3-9.9s3.9-7.6,9.4-7.6,9.6,3.4,9.6,8h-4.7c0-2.3-2-3.9-4.8-3.9s-4.3,1.2-4.3,2.8c0,4.7,14.3.7,14.3,9.9s-3.9,7.9-9.8,7.9-10.1-3.5-10.1-8.4h0Z"></path></g></g><path class="st0" d="M317.8,145.2l-2.9-2.6c-2.2,2.1-4.9,3.4-7.7,3.4-4.4,0-7.5-2.7-7.5-6.5s2.2-5.3,4.9-6.5c-1.3-1.4-2.4-3.2-2.4-5.3,0-3.3,2.7-5.8,6.3-5.8,3.5,0,6.1,2.4,6.6,5.7l-2.5.5c-.3-2.2-1.8-3.8-4-3.8s-3.8,1.4-3.8,3.6.9,3.2,2.6,4.7c1,.9,6.4,5.9,7.5,6.8,1.1-1.4,1.9-3.1,2.5-5.1h2.5c-.8,2.5-2,4.8-3.4,6.6.7.6,4.2,3.9,4.9,4.4h-3.6,0ZM313.2,141.1c-1-.9-5.9-5.5-7-6.4-2.4.9-3.9,2.2-3.9,4.8s2.2,4.2,5.2,4.2,4.1-.9,5.7-2.5h0Z"></path><path class="st0" d="M336.1,145.2v-22.8h7c8,0,13.3,4.6,13.3,11.4s-5.3,11.4-13.3,11.4h-7ZM343.1,124.8h-4.3v18h4.3c6.3,0,10.6-3.5,10.6-9s-4.3-9-10.6-9h0Z"></path><path class="st0" d="M375.6,134.5h-11.6v8.3h13.3v2.4h-15.9v-22.8h15.5v2.4h-12.9v7.5h11.6v2.3h0Z"></path><path class="st0" d="M381.3,137.8h2.7c0,3.4,2.9,5.8,7,5.8s6-2,6-4.4c0-6.2-15.4-2.1-15.4-10.6s3.5-7,8.6-7,9,3.2,9,7.7h-2.6c0-3.1-2.6-5.3-6.4-5.3s-5.9,1.8-5.9,4.2c0,6.1,15.4,2,15.4,10.7s-3.4,7.1-8.8,7.1-9.6-3.4-9.6-8.2h0Z"></path><path class="st0" d="M404.9,145.2v-22.8h2.7v22.8h-2.7Z"></path><path class="st0" d="M441.4,145.4v-22.8h3.6l11.7,19.5v-19.5h2.7v22.8h-3.6l-11.7-19.5v19.5h-2.7Z"></path><path class="st0" d="M424.6,135.2v-2.4h11.9c.5,7.8-4.4,13.4-11.8,13.4s-12.2-5.1-12.2-12.2,5.1-12.2,12.2-12.2,9.2,2.9,10.4,6.8l-2.5.8c-.9-3-4.3-5.2-7.9-5.2-5.6,0-9.6,4.1-9.6,9.8s4,9.8,9.6,9.8,9-3.7,9.1-8.6h-9.2s0,0,0,0Z"></path></svg>